{"glyphs":{"0":{"ha":978,"x_min":58,"x_max":904,"o":"m 904 561 l 904 401 q 873 245 904 318 q 788 117 842 172 q 660 31 733 63 q 504 0 588 0 l 460 0 q 303 31 376 0 q 176 117 231 63 q 90 245 122 172 q 58 401 58 318 l 58 561 q 90 717 58 644 q 176 845 122 790 q 303 931 231 900 q 460 963 376 963 l 504 963 q 660 931 588 963 q 788 845 733 900 q 873 717 842 790 q 904 561 904 644 m 744 401 l 744 561 q 726 655 744 611 q 674 732 707 699 q 598 784 642 765 q 504 803 554 803 l 460 803 q 366 784 410 803 q 290 732 322 765 q 238 655 257 699 q 219 561 219 611 l 219 401 q 238 308 219 351 q 290 231 257 264 q 366 180 322 199 q 460 161 410 161 l 504 161 q 598 180 554 161 q 674 231 642 199 q 726 308 707 264 q 744 401 744 351 z "},"1":{"ha":433,"x_min":64,"x_max":356,"o":"m 356 964 l 356 0 l 194 0 l 194 803 l 64 803 l 64 964 l 194 964 l 356 964 z "},"2":{"ha":796,"x_min":79,"x_max":721,"o":"m 721 160 l 721 0 l 319 0 l 79 0 l 79 321 l 79 481 l 239 481 l 239 321 l 239 160 l 319 160 l 721 160 m 721 642 l 721 481 l 560 481 l 560 642 q 547 704 560 675 q 513 755 535 733 q 463 789 492 776 q 400 801 433 801 l 79 801 l 79 963 l 400 963 q 525 938 467 963 q 627 869 583 913 q 696 767 671 825 q 721 642 721 708 z "},"3":{"ha":799,"x_min":81,"x_max":724,"o":"m 724 642 l 724 321 q 698 196 724 254 q 628 94 672 138 q 526 25 585 50 q 401 0 468 0 l 81 0 l 81 161 l 401 161 q 464 174 435 161 q 515 208 493 186 q 550 258 538 229 q 563 321 563 288 l 563 642 q 550 704 563 675 q 515 756 538 733 q 464 790 493 778 q 401 803 435 803 l 81 803 l 81 963 l 401 963 q 526 938 468 963 q 628 869 585 913 q 698 767 672 825 q 724 642 724 708 m 482 563 l 482 401 l 81 401 l 81 563 l 482 563 z "},"4":{"ha":806,"x_min":68,"x_max":710,"o":"m 710 963 l 710 0 l 549 0 l 549 715 l 279 400 l 469 400 l 469 240 l 68 240 l 68 400 l 549 963 l 710 963 z "},"5":{"ha":806,"x_min":82,"x_max":724,"o":"m 724 481 l 724 321 q 699 196 724 254 q 630 94 674 138 q 528 25 586 50 q 403 0 469 0 l 82 0 l 82 160 l 403 160 q 465 172 436 160 q 517 207 494 185 q 551 258 539 229 q 564 321 564 288 l 564 481 l 724 481 m 724 963 l 724 801 l 322 801 l 243 801 l 243 642 l 243 481 l 82 481 l 82 642 l 82 963 l 322 963 l 724 963 z "},"6":{"ha":843,"x_min":61,"x_max":783,"o":"m 542 561 q 635 542 592 561 q 713 491 679 524 q 765 415 746 458 q 783 321 783 371 q 758 196 783 254 q 690 94 733 138 q 588 25 646 50 q 463 0 529 0 l 382 0 q 257 25 315 0 q 155 94 199 50 q 86 196 111 138 q 61 321 61 254 l 61 642 q 86 767 61 708 q 155 869 111 825 q 257 938 199 913 q 382 963 315 963 l 542 963 l 622 963 l 622 803 l 542 803 l 382 803 q 319 790 349 803 q 268 756 290 778 q 233 704 246 733 q 221 642 221 675 l 221 321 q 233 258 221 288 q 268 207 246 229 q 319 172 290 185 q 382 160 349 160 l 463 160 q 524 172 496 160 q 575 207 553 185 q 610 258 597 229 q 622 321 622 288 q 599 378 622 354 q 542 401 575 401 l 463 401 l 382 401 l 301 401 l 301 561 l 382 561 l 463 561 l 542 561 z "},"7":{"ha":785,"x_min":74,"x_max":715,"o":"m 715 963 l 715 801 l 74 801 l 74 963 l 715 963 m 669 722 l 258 0 l 74 0 l 485 722 l 669 722 z "},"8":{"ha":874,"x_min":71,"x_max":794,"o":"m 794 642 q 779 555 794 593 q 732 481 764 517 q 779 407 764 444 q 794 321 794 369 q 769 196 794 254 q 699 94 743 138 q 597 25 656 50 q 472 0 539 0 l 393 0 q 267 25 326 0 q 165 94 208 50 q 96 196 121 138 q 71 321 71 254 q 86 407 71 369 q 133 481 101 444 q 86 555 101 517 q 71 642 71 593 q 96 767 71 708 q 165 869 121 825 q 267 938 208 913 q 393 963 326 963 l 472 963 q 597 938 539 963 q 699 869 656 913 q 769 767 743 825 q 794 642 794 708 m 553 561 q 610 585 586 561 q 633 642 633 608 q 621 704 633 675 q 586 755 608 733 q 535 789 564 776 q 472 801 506 801 l 393 801 q 331 789 360 801 q 279 755 301 776 q 244 704 257 733 q 232 642 232 675 q 256 585 232 608 q 313 561 279 561 l 393 561 l 472 561 l 553 561 m 633 321 q 610 377 633 354 q 553 400 586 400 l 472 400 l 393 400 l 313 400 q 256 377 279 400 q 232 321 232 354 q 244 258 232 288 q 279 207 257 229 q 331 172 301 185 q 393 160 360 160 l 472 160 q 535 172 506 160 q 586 207 564 185 q 621 258 608 229 q 633 321 633 288 z "},"9":{"ha":874,"x_min":65,"x_max":788,"o":"m 788 642 l 788 321 q 763 196 788 254 q 694 94 738 138 q 592 25 650 50 q 467 0 533 0 l 307 0 l 226 0 l 226 160 l 307 160 l 467 160 q 529 172 500 160 q 581 207 558 185 q 615 258 603 229 q 628 321 628 288 l 628 642 q 615 704 628 675 q 581 756 603 733 q 529 790 558 778 q 467 803 500 803 l 388 803 q 325 790 354 803 q 274 756 296 778 q 239 704 251 733 q 226 642 226 675 q 250 585 226 608 q 307 561 274 561 l 388 561 l 467 561 l 547 561 l 547 401 l 467 401 l 388 401 l 307 401 q 213 420 257 401 q 136 472 169 439 q 84 548 103 504 q 65 642 65 592 q 90 767 65 708 q 159 869 115 825 q 262 938 203 913 q 388 963 321 963 l 467 963 q 592 938 533 963 q 694 869 650 913 q 763 767 738 825 q 788 642 788 708 z "},"\u0000":{"ha":0,"x_min":0,"x_max":0,"o":""},"\r":{"ha":429,"x_min":0,"x_max":0,"o":""}," ":{"ha":451,"x_min":0,"x_max":0,"o":""},"E":{"ha":813,"x_min":64,"x_max":746,"o":"m 746 161 l 746 0 l 544 0 q 357 38 444 0 q 204 142 269 76 q 101 294 139 207 q 64 482 64 382 q 101 669 64 582 q 204 822 139 757 q 357 926 269 888 q 544 964 444 964 l 746 964 l 746 803 l 544 803 q 419 778 478 803 q 317 709 361 753 q 249 607 274 665 q 224 482 224 549 q 249 357 224 415 q 317 255 274 299 q 419 186 361 211 q 544 161 478 161 l 746 161 m 746 563 l 746 401 l 318 401 q 303 482 303 444 q 318 563 303 519 l 746 563 z "},"F":{"ha":782,"x_min":88,"x_max":719,"o":"m 719 963 l 719 801 l 328 801 l 328 963 l 719 963 m 639 561 l 639 400 l 247 400 l 247 0 l 88 0 l 88 963 l 247 963 l 247 561 l 639 561 z "},"G":{"ha":878,"x_min":71,"x_max":793,"o":"m 793 161 l 793 0 l 551 0 q 364 38 451 0 q 211 142 276 76 q 108 294 146 207 q 71 482 71 382 q 108 669 71 582 q 211 823 146 757 q 364 926 276 889 q 551 964 451 964 l 793 964 l 793 803 l 551 803 q 426 778 485 803 q 324 709 368 753 q 256 607 281 665 q 231 482 231 549 q 256 357 231 415 q 324 255 281 299 q 426 186 368 211 q 551 161 485 161 l 793 161 m 793 401 l 793 242 l 632 242 l 632 401 l 325 401 q 310 482 310 444 q 325 563 310 519 l 793 563 l 793 401 z "},"H":{"ha":892,"x_min":88,"x_max":810,"o":"m 810 321 l 810 0 l 650 0 l 650 401 l 249 401 l 249 0 l 88 0 l 88 563 l 650 563 l 650 964 l 810 964 l 810 563 l 810 401 l 810 321 m 249 964 l 249 643 l 88 643 l 88 964 l 249 964 z "},"I":{"ha":325,"x_min":86,"x_max":246,"o":"m 246 963 l 246 0 l 86 0 l 86 963 l 246 963 z "},"J":{"ha":467,"x_min":43,"x_max":364,"o":"m 364 963 l 364 321 q 339 196 364 254 q 270 94 314 138 q 168 25 226 50 q 43 0 110 0 l 43 160 q 105 172 76 160 q 156 207 133 185 q 190 258 178 229 q 203 321 203 288 l 203 963 l 364 963 z "},"K":{"ha":904,"x_min":92,"x_max":846,"o":"m 846 964 l 525 482 l 846 0 l 653 0 l 332 482 l 653 964 l 846 964 m 251 964 l 251 0 l 92 0 l 92 964 l 251 964 z "},"L":{"ha":614,"x_min":71,"x_max":585,"o":"m 585 160 l 585 0 l 232 0 l 71 0 l 71 963 l 232 963 l 232 160 l 585 160 z "},"M":{"ha":1139,"x_min":92,"x_max":1042,"o":"m 1042 964 l 1042 0 l 882 0 l 882 546 l 697 104 l 611 314 l 882 964 l 1042 964 m 253 964 l 654 0 l 481 0 l 253 546 l 253 0 l 92 0 l 92 964 l 253 964 z "},"N":{"ha":982,"x_min":89,"x_max":892,"o":"m 892 963 l 892 144 l 731 385 l 731 963 l 892 963 m 249 963 l 892 0 l 731 0 l 699 0 l 249 674 l 249 0 l 89 0 l 89 963 l 249 963 z "},"O":{"ha":978,"x_min":58,"x_max":904,"o":"m 904 561 l 904 401 q 873 245 904 318 q 788 117 842 172 q 660 31 733 63 q 504 0 588 0 l 460 0 q 303 31 376 0 q 176 117 231 63 q 90 245 122 172 q 58 401 58 318 l 58 561 q 90 717 58 644 q 176 845 122 790 q 303 931 231 900 q 460 963 376 963 l 504 963 q 660 931 588 963 q 788 845 733 900 q 873 717 842 790 q 904 561 904 644 m 744 401 l 744 561 q 726 655 744 611 q 674 732 707 699 q 598 784 642 765 q 504 803 554 803 l 460 803 q 366 784 410 803 q 290 732 322 765 q 238 655 257 699 q 219 561 219 611 l 219 401 q 238 308 219 351 q 290 231 257 264 q 366 180 322 199 q 460 161 410 161 l 504 161 q 598 180 554 161 q 674 231 642 199 q 726 308 707 264 q 744 401 744 351 z "},"P":{"ha":826,"x_min":97,"x_max":771,"o":"m 450 963 q 575 938 517 963 q 677 869 633 913 q 746 767 721 825 q 771 642 771 708 q 746 517 771 575 q 677 415 721 458 q 575 346 633 371 q 450 321 517 321 l 258 321 l 258 0 l 97 0 l 97 482 l 178 482 l 450 482 q 513 494 483 482 q 563 529 542 507 q 597 580 585 551 q 610 642 610 608 q 597 704 610 675 q 563 756 585 733 q 513 790 542 778 q 450 803 483 803 l 97 803 l 97 963 l 258 963 l 450 963 z "},"Q":{"ha":975,"x_min":60,"x_max":907,"o":"m 907 563 l 907 401 q 892 292 907 343 q 846 192 878 242 l 743 371 q 745 386 744 378 q 746 401 746 394 l 746 563 q 727 656 746 613 q 676 733 708 700 q 599 784 643 765 q 506 803 556 803 l 461 803 q 367 784 411 803 q 291 733 324 765 q 240 656 258 700 q 221 563 221 613 l 221 401 q 240 308 221 351 q 291 231 258 264 q 367 180 324 199 q 461 161 411 161 l 506 161 q 579 172 542 161 l 481 346 l 665 346 l 793 122 q 663 28 731 57 q 506 0 596 0 l 461 0 q 305 32 378 0 q 178 118 232 64 q 92 245 124 172 q 60 401 60 318 l 60 563 q 92 719 60 646 q 178 846 124 792 q 305 932 232 900 q 461 964 378 964 l 506 964 q 662 932 589 964 q 789 846 735 900 q 875 719 843 792 q 907 563 907 646 z "},"R":{"ha":879,"x_min":99,"x_max":786,"o":"m 581 346 l 779 0 l 593 0 l 410 321 l 260 321 l 260 0 l 99 0 l 99 482 l 179 482 l 361 482 l 457 482 q 519 494 490 482 q 571 528 549 507 q 606 579 593 550 q 618 642 618 608 q 606 704 618 675 q 571 756 593 733 q 519 790 549 778 q 457 803 490 803 l 99 803 l 99 963 l 260 963 l 457 963 q 610 926 544 963 q 717 833 676 890 q 772 705 758 775 q 771 566 786 635 q 708 438 756 497 q 581 346 661 379 z "},"S":{"ha":869,"x_min":76,"x_max":774,"o":"m 774 482 l 774 321 q 749 196 774 254 q 680 94 724 138 q 578 25 636 50 q 453 0 519 0 l 76 0 l 76 161 l 453 161 q 515 174 486 161 q 565 208 543 186 q 600 258 588 229 q 613 321 613 288 l 613 482 l 774 482 m 774 964 l 774 803 l 397 803 q 335 790 364 803 q 283 756 306 778 q 249 705 261 733 q 236 643 236 676 l 236 482 l 76 482 l 76 643 q 101 768 76 710 q 170 870 126 826 q 272 939 214 914 q 397 964 331 964 l 774 964 z "},"T":{"ha":760,"x_min":29,"x_max":735,"o":"m 735 964 l 735 803 l 29 803 l 29 964 l 61 964 l 735 964 m 463 722 l 463 0 l 303 0 l 303 722 l 463 722 z "},"U":{"ha":960,"x_min":75,"x_max":885,"o":"m 885 963 l 885 401 q 853 245 885 318 q 767 117 821 172 q 640 31 713 63 q 483 0 567 0 l 476 0 q 320 31 393 0 q 192 117 247 63 q 106 245 138 172 q 75 401 75 318 l 75 963 l 236 963 l 236 561 l 236 401 q 255 308 236 351 q 306 231 274 264 q 383 180 339 199 q 476 161 426 161 l 483 161 q 577 180 533 161 q 653 231 621 199 q 705 308 686 264 q 724 401 724 351 l 724 561 l 724 963 l 885 963 z "},"V":{"ha":1003,"x_min":13,"x_max":989,"o":"m 989 963 l 632 104 l 544 313 l 815 963 l 989 963 m 186 963 l 588 0 l 414 0 l 13 963 l 186 963 z "},"W":{"ha":1485,"x_min":14,"x_max":1472,"o":"m 1472 963 l 1114 104 l 1026 313 l 1297 963 l 1472 963 m 669 963 l 1071 0 l 896 0 l 743 369 l 632 104 l 546 313 l 656 578 l 494 963 l 669 963 m 990 963 l 874 682 l 786 890 l 817 963 l 990 963 m 188 963 l 589 0 l 415 0 l 14 963 l 188 963 z "},"X":{"ha":818,"x_min":71,"x_max":760,"o":"m 760 963 l 551 567 l 461 739 l 579 963 l 715 963 l 760 963 m 253 963 l 760 0 l 579 0 l 415 308 l 325 481 l 71 963 l 253 963 m 279 394 l 369 222 l 253 0 l 71 0 l 279 394 z "},"Y":{"ha":828,"x_min":31,"x_max":801,"o":"m 801 963 l 561 603 l 464 747 l 608 963 l 801 963 m 513 529 l 513 0 l 353 0 l 353 481 l 31 963 l 224 963 l 513 529 z "},"Z":{"ha":875,"x_min":74,"x_max":796,"o":"m 796 161 l 796 0 l 150 0 l 74 0 l 74 161 l 74 161 l 74 161 l 525 722 l 732 722 l 279 161 l 796 161 m 796 964 l 796 803 l 74 803 l 74 964 l 796 964 z "},"a":{"ha":833,"x_min":15,"x_max":818,"o":"m 417 963 l 818 0 l 276 0 l 343 161 l 578 161 l 417 546 l 256 161 l 189 0 l 15 0 l 417 963 z "},"b":{"ha":828,"x_min":82,"x_max":753,"o":"m 243 401 l 243 160 l 471 160 q 556 195 521 160 q 592 281 592 231 q 556 366 592 331 q 471 401 521 401 l 243 401 m 471 963 q 585 939 533 963 q 673 876 636 915 q 731 788 710 838 q 752 684 751 738 q 733 578 753 631 q 668 482 713 525 q 733 385 713 438 q 752 278 753 332 q 731 175 751 225 q 673 86 710 125 q 585 24 636 47 q 471 0 533 0 l 243 0 l 163 0 l 82 0 l 82 482 l 82 561 l 163 561 l 243 561 l 471 561 q 556 597 521 561 q 592 682 592 632 q 556 767 592 732 q 471 803 521 803 l 82 803 l 82 963 l 163 963 l 243 963 l 471 963 z "},"c":{"ha":775,"x_min":38,"x_max":714,"o":"m 714 160 l 714 0 l 519 0 q 332 38 419 0 q 178 140 244 75 q 75 293 113 206 q 38 481 38 381 q 75 668 38 581 q 178 822 113 756 q 332 925 244 888 q 519 963 419 963 l 714 963 l 714 801 l 519 801 q 394 776 453 801 q 291 708 335 751 q 222 606 247 664 q 197 481 197 547 q 222 356 197 414 q 291 253 247 297 q 394 185 335 210 q 519 160 453 160 l 714 160 z "},"d":{"ha":913,"x_min":83,"x_max":847,"o":"m 365 964 q 553 926 465 964 q 706 823 640 889 q 809 669 771 757 q 847 482 847 582 q 809 294 847 382 q 706 142 771 207 q 553 38 640 76 q 365 0 465 0 l 164 0 l 83 0 l 83 722 l 243 722 l 243 161 l 365 161 q 490 186 432 161 q 592 255 549 211 q 661 357 636 299 q 686 482 686 415 q 661 607 686 549 q 592 709 636 665 q 490 778 549 753 q 365 803 432 803 l 164 803 l 83 803 l 83 964 l 164 964 l 365 964 z "},"e":{"ha":813,"x_min":64,"x_max":746,"o":"m 746 161 l 746 0 l 544 0 q 357 38 444 0 q 204 142 269 76 q 101 294 139 207 q 64 482 64 382 q 101 669 64 582 q 204 822 139 757 q 357 926 269 888 q 544 964 444 964 l 746 964 l 746 803 l 544 803 q 419 778 478 803 q 317 709 361 753 q 249 607 274 665 q 224 482 224 549 q 249 357 224 415 q 317 255 274 299 q 419 186 361 211 q 544 161 478 161 l 746 161 m 746 563 l 746 401 l 318 401 q 303 482 303 444 q 318 563 303 519 l 746 563 z "},"f":{"ha":782,"x_min":88,"x_max":719,"o":"m 719 963 l 719 801 l 328 801 l 328 963 l 719 963 m 639 561 l 639 400 l 247 400 l 247 0 l 88 0 l 88 963 l 247 963 l 247 561 l 639 561 z "},"g":{"ha":878,"x_min":71,"x_max":793,"o":"m 793 161 l 793 0 l 551 0 q 364 38 451 0 q 211 142 276 76 q 108 294 146 207 q 71 482 71 382 q 108 669 71 582 q 211 823 146 757 q 364 926 276 889 q 551 964 451 964 l 793 964 l 793 803 l 551 803 q 426 778 485 803 q 324 709 368 753 q 256 607 281 665 q 231 482 231 549 q 256 357 231 415 q 324 255 281 299 q 426 186 368 211 q 551 161 485 161 l 793 161 m 793 401 l 793 242 l 632 242 l 632 401 l 325 401 q 310 482 310 444 q 325 563 310 519 l 793 563 l 793 401 z "},"h":{"ha":892,"x_min":88,"x_max":810,"o":"m 810 321 l 810 0 l 650 0 l 650 401 l 249 401 l 249 0 l 88 0 l 88 563 l 650 563 l 650 964 l 810 964 l 810 563 l 810 401 l 810 321 m 249 964 l 249 643 l 88 643 l 88 964 l 249 964 z "},"i":{"ha":325,"x_min":86,"x_max":246,"o":"m 246 963 l 246 0 l 86 0 l 86 963 l 246 963 z "},"j":{"ha":467,"x_min":43,"x_max":364,"o":"m 364 963 l 364 321 q 339 196 364 254 q 270 94 314 138 q 168 25 226 50 q 43 0 110 0 l 43 160 q 105 172 76 160 q 156 207 133 185 q 190 258 178 229 q 203 321 203 288 l 203 963 l 364 963 z "},"k":{"ha":904,"x_min":92,"x_max":846,"o":"m 846 964 l 525 482 l 846 0 l 653 0 l 332 482 l 653 964 l 846 964 m 251 964 l 251 0 l 92 0 l 92 964 l 251 964 z "},"l":{"ha":614,"x_min":71,"x_max":585,"o":"m 585 160 l 585 0 l 232 0 l 71 0 l 71 963 l 232 963 l 232 160 l 585 160 z "},"m":{"ha":1139,"x_min":92,"x_max":1042,"o":"m 1042 964 l 1042 0 l 882 0 l 882 546 l 697 104 l 611 314 l 882 964 l 1042 964 m 253 964 l 654 0 l 481 0 l 253 546 l 253 0 l 92 0 l 92 964 l 253 964 z "},"n":{"ha":982,"x_min":89,"x_max":892,"o":"m 892 963 l 892 144 l 731 385 l 731 963 l 892 963 m 249 963 l 892 0 l 731 0 l 699 0 l 249 674 l 249 0 l 89 0 l 89 963 l 249 963 z "},"o":{"ha":978,"x_min":58,"x_max":904,"o":"m 904 561 l 904 401 q 873 245 904 318 q 788 117 842 172 q 660 31 733 63 q 504 0 588 0 l 460 0 q 303 31 376 0 q 176 117 231 63 q 90 245 122 172 q 58 401 58 318 l 58 561 q 90 717 58 644 q 176 845 122 790 q 303 931 231 900 q 460 963 376 963 l 504 963 q 660 931 588 963 q 788 845 733 900 q 873 717 842 790 q 904 561 904 644 m 744 401 l 744 561 q 726 655 744 611 q 674 732 707 699 q 598 784 642 765 q 504 803 554 803 l 460 803 q 366 784 410 803 q 290 732 322 765 q 238 655 257 699 q 219 561 219 611 l 219 401 q 238 308 219 351 q 290 231 257 264 q 366 180 322 199 q 460 161 410 161 l 504 161 q 598 180 554 161 q 674 231 642 199 q 726 308 707 264 q 744 401 744 351 z "},"p":{"ha":826,"x_min":97,"x_max":771,"o":"m 450 963 q 575 938 517 963 q 677 869 633 913 q 746 767 721 825 q 771 642 771 708 q 746 517 771 575 q 677 415 721 458 q 575 346 633 371 q 450 321 517 321 l 258 321 l 258 0 l 97 0 l 97 482 l 178 482 l 450 482 q 513 494 483 482 q 563 529 542 507 q 597 580 585 551 q 610 642 610 608 q 597 704 610 675 q 563 756 585 733 q 513 790 542 778 q 450 803 483 803 l 97 803 l 97 963 l 258 963 l 450 963 z "},"q":{"ha":975,"x_min":60,"x_max":907,"o":"m 907 563 l 907 401 q 892 292 907 343 q 846 192 878 242 l 743 371 q 745 386 744 378 q 746 401 746 394 l 746 563 q 727 656 746 613 q 676 733 708 700 q 599 784 643 765 q 506 803 556 803 l 461 803 q 367 784 411 803 q 291 733 324 765 q 240 656 258 700 q 221 563 221 613 l 221 401 q 240 308 221 351 q 291 231 258 264 q 367 180 324 199 q 461 161 411 161 l 506 161 q 579 172 542 161 l 481 346 l 665 346 l 793 122 q 663 28 731 57 q 506 0 596 0 l 461 0 q 305 32 378 0 q 178 118 232 64 q 92 245 124 172 q 60 401 60 318 l 60 563 q 92 719 60 646 q 178 846 124 792 q 305 932 232 900 q 461 964 378 964 l 506 964 q 662 932 589 964 q 789 846 735 900 q 875 719 843 792 q 907 563 907 646 z "},"r":{"ha":879,"x_min":99,"x_max":786,"o":"m 581 346 l 779 0 l 593 0 l 410 321 l 260 321 l 260 0 l 99 0 l 99 482 l 179 482 l 361 482 l 457 482 q 519 494 490 482 q 571 528 549 507 q 606 579 593 550 q 618 642 618 608 q 606 704 618 675 q 571 756 593 733 q 519 790 549 778 q 457 803 490 803 l 99 803 l 99 963 l 260 963 l 457 963 q 610 926 544 963 q 717 833 676 890 q 772 705 758 775 q 771 566 786 635 q 708 438 756 497 q 581 346 661 379 z "},"s":{"ha":869,"x_min":76,"x_max":774,"o":"m 774 482 l 774 321 q 749 196 774 254 q 680 94 724 138 q 578 25 636 50 q 453 0 519 0 l 76 0 l 76 161 l 453 161 q 515 174 486 161 q 565 208 543 186 q 600 258 588 229 q 613 321 613 288 l 613 482 l 774 482 m 774 964 l 774 803 l 397 803 q 335 790 364 803 q 283 756 306 778 q 249 705 261 733 q 236 643 236 676 l 236 482 l 76 482 l 76 643 q 101 768 76 710 q 170 870 126 826 q 272 939 214 914 q 397 964 331 964 l 774 964 z "},"t":{"ha":760,"x_min":29,"x_max":735,"o":"m 735 964 l 735 803 l 29 803 l 29 964 l 61 964 l 735 964 m 463 722 l 463 0 l 303 0 l 303 722 l 463 722 z "},"u":{"ha":960,"x_min":75,"x_max":885,"o":"m 885 963 l 885 401 q 853 245 885 318 q 767 117 821 172 q 640 31 713 63 q 483 0 567 0 l 476 0 q 320 31 393 0 q 192 117 247 63 q 106 245 138 172 q 75 401 75 318 l 75 963 l 236 963 l 236 561 l 236 401 q 255 308 236 351 q 306 231 274 264 q 383 180 339 199 q 476 161 426 161 l 483 161 q 577 180 533 161 q 653 231 621 199 q 705 308 686 264 q 724 401 724 351 l 724 561 l 724 963 l 885 963 z "},"v":{"ha":1003,"x_min":13,"x_max":989,"o":"m 989 963 l 632 104 l 544 313 l 815 963 l 989 963 m 186 963 l 588 0 l 414 0 l 13 963 l 186 963 z "},"w":{"ha":1485,"x_min":14,"x_max":1472,"o":"m 1472 963 l 1114 104 l 1026 313 l 1297 963 l 1472 963 m 669 963 l 1071 0 l 896 0 l 743 369 l 632 104 l 546 313 l 656 578 l 494 963 l 669 963 m 990 963 l 874 682 l 786 890 l 817 963 l 990 963 m 188 963 l 589 0 l 415 0 l 14 963 l 188 963 z "},"x":{"ha":818,"x_min":71,"x_max":760,"o":"m 760 963 l 551 567 l 461 739 l 579 963 l 715 963 l 760 963 m 253 963 l 760 0 l 579 0 l 415 308 l 325 481 l 71 963 l 253 963 m 279 394 l 369 222 l 253 0 l 71 0 l 279 394 z "},"y":{"ha":828,"x_min":31,"x_max":801,"o":"m 801 963 l 561 603 l 464 747 l 608 963 l 801 963 m 513 529 l 513 0 l 353 0 l 353 481 l 31 963 l 224 963 l 513 529 z "},"z":{"ha":875,"x_min":74,"x_max":796,"o":"m 796 161 l 796 0 l 150 0 l 74 0 l 74 161 l 74 161 l 74 161 l 525 722 l 732 722 l 279 161 l 796 161 m 796 964 l 796 803 l 74 803 l 74 964 l 796 964 z "},"D":{"ha":913,"x_min":83,"x_max":847,"o":"m 365 964 q 553 926 465 964 q 706 823 640 889 q 809 669 771 757 q 847 482 847 582 q 809 294 847 382 q 706 142 771 207 q 553 38 640 76 q 365 0 465 0 l 164 0 l 83 0 l 83 722 l 243 722 l 243 161 l 365 161 q 490 186 432 161 q 592 255 549 211 q 661 357 636 299 q 686 482 686 415 q 661 607 686 549 q 592 709 636 665 q 490 778 549 753 q 365 803 432 803 l 164 803 l 83 803 l 83 964 l 164 964 l 365 964 z "},"!":{"ha":333,"x_min":85,"x_max":246,"o":"m 246 963 l 246 400 l 85 400 l 85 963 l 246 963 m 165 160 q 222 136 199 160 q 246 79 246 113 q 222 23 246 46 q 165 0 199 0 q 108 23 132 0 q 85 79 85 46 q 108 136 85 113 q 165 160 132 160 z "},",":{"ha":311,"x_min":76,"x_max":243,"o":"m 76 78 q 91 129 76 110 q 127 155 106 149 q 172 157 149 161 q 212 138 194 153 q 236 101 229 124 q 231 47 243 78 q 219 28 226 38 l 117 -78 q 89 -87 101 -93 q 76 -61 76 -82 l 76 78 z "},".":{"ha":281,"x_min":60,"x_max":219,"o":"m 139 160 q 196 137 172 160 q 219 81 219 114 q 196 24 219 47 q 139 0 172 0 q 83 24 107 0 q 60 81 60 47 q 83 137 60 114 q 139 160 107 160 z "},":":{"ha":281,"x_min":60,"x_max":219,"o":"m 139 160 q 196 137 172 160 q 219 81 219 114 q 196 24 219 47 q 139 0 172 0 q 83 24 107 0 q 60 81 60 47 q 83 137 60 114 q 139 160 107 160 m 139 964 q 196 941 172 964 q 219 885 219 918 q 196 828 219 851 q 139 804 172 804 q 83 828 107 804 q 60 885 60 851 q 83 941 60 918 q 139 964 107 964 z "},";":{"ha":281,"x_min":60,"x_max":226,"o":"m 139 964 q 196 941 172 964 q 219 885 219 918 q 196 828 219 851 q 139 804 172 804 q 83 828 107 804 q 60 885 60 851 q 83 941 60 918 q 139 964 107 964 m 60 78 q 74 129 60 110 q 110 155 89 149 q 155 157 132 161 q 195 138 178 153 q 219 101 213 124 q 214 47 226 78 q 203 28 210 38 l 100 -78 q 72 -87 85 -93 q 60 -61 60 -82 l 60 78 z "},"?":{"ha":776,"x_min":71,"x_max":714,"o":"m 714 642 l 714 401 l 553 401 l 553 642 q 540 704 553 675 q 506 756 528 733 q 454 790 483 778 q 392 803 425 803 l 71 803 l 71 963 l 392 963 q 517 938 458 963 q 619 869 575 913 q 688 767 663 825 q 714 642 714 708 m 392 161 q 449 138 425 161 q 472 81 472 114 q 449 24 472 47 q 392 0 425 0 q 335 24 358 0 q 313 81 313 47 q 335 138 313 114 q 392 161 358 161 z "},"B":{"ha":828,"x_min":82,"x_max":753,"o":"m 243 401 l 243 160 l 471 160 q 556 195 521 160 q 592 281 592 231 q 556 366 592 331 q 471 401 521 401 l 243 401 m 471 963 q 585 939 533 963 q 673 876 636 915 q 731 788 710 838 q 752 684 751 738 q 733 578 753 631 q 668 482 713 525 q 733 385 713 438 q 752 278 753 332 q 731 175 751 225 q 673 86 710 125 q 585 24 636 47 q 471 0 533 0 l 243 0 l 163 0 l 82 0 l 82 482 l 82 561 l 163 561 l 243 561 l 471 561 q 556 597 521 561 q 592 682 592 632 q 556 767 592 732 q 471 803 521 803 l 82 803 l 82 963 l 163 963 l 243 963 l 471 963 z "},"C":{"ha":775,"x_min":38,"x_max":714,"o":"m 714 160 l 714 0 l 519 0 q 332 38 419 0 q 178 140 244 75 q 75 293 113 206 q 38 481 38 381 q 75 668 38 581 q 178 822 113 756 q 332 925 244 888 q 519 963 419 963 l 714 963 l 714 801 l 519 801 q 394 776 453 801 q 291 708 335 751 q 222 606 247 664 q 197 481 197 547 q 222 356 197 414 q 291 253 247 297 q 394 185 335 210 q 519 160 453 160 l 714 160 z "},"A":{"ha":833,"x_min":15,"x_max":818,"o":"m 417 963 l 818 0 l 276 0 l 343 161 l 578 161 l 417 546 l 256 161 l 189 0 l 15 0 l 417 963 z "}}}
